<?xml version="1.0" encoding="utf-8"?>
<svg xmlns="http://www.w3.org/2000/svg" xmlns:xlink="http://www.w3.org/1999/xlink" version="1.1" baseProfile="full" width="12.6406" height="8.76563" viewBox="0 0 12.64 8.77" enable-background="new 0 0 12.64 8.77" xml:space="preserve">
	<path fill="#000000" fill-opacity="1" stroke-width="0.2" stroke-linecap="round" stroke-linejoin="miter" d="M 0.984406,2.18747L 1.26566,2.17184L 1.46875,2.15625L 1.71875,2.23438L 1.98438,2.32813L 2.1875,2.48438L 5.29688,5.17188L 10.4219,0.359375L 10.625,0.1875L 10.8594,0.078125L 11.0938,0L 11.375,0L 11.6094,0.03125L 11.8438,0.09375L 12.0469,0.203125L 12.2656,0.390625L 12.4219,0.578125L 12.5469,0.8125L 12.625,1.09375L 12.6406,1.40625L 12.6094,1.64063L 12.5313,1.89063L 12.375,2.125L 12.1719,2.35938L 5.35938,8.76563L 0.359375,4.40625L 0.1875,4.20313L 0.046875,3.875L 0,3.625L 0,3.3125L 0.078125,3.01563L 0.140625,2.84375L 0.3125,2.625L 0.5,2.40625L 0.71875,2.26563"/>
</svg>
